<svg xmlns="http://www.w3.org/2000/svg" width="87.918" height="16.99" viewBox="0 0 87.918 16.99">
    <g data-name="패스 22689" style="fill:#fbf5ea">
        <path d="M35.744 2.16H31.23V-.837h-5.128V-4.234h-.567v6.25h-4.24v-.61h-9.167v-14.592h4.24V-2.64h4.926V-13.33h4.24v4.888h1.177v-4.744h13.551V-4.9h.593v4.064h-5.112V2.16zM30.952-8.635h5.07v-.519h-5.07v.52zM11.418 2.015h-4.24v-.608h-9.616v-3.984h.978v-6.577h-.834v-4.032h9.471v-.144h4.24V2.016zM6.01-2.576h1.166v-6.577h-.413l-.03.265-.723 6.312zM2.604-9.154V-8.276l.091-.785.01-.093h-.101zm-5.61 11.17h-4.24v-6.25h-1.881c-.198.464-.427.912-.686 1.343C-10.861-1.15-12.41.31-14.295 1.332l-.494.268-.396-.399-1.907-1.923-.336-.339v3.077h-13.551v-5.673h-.609V-7.022h-.567v5.647h.304V2.015h-13.407V-5.211h-.304v-7.974h9.032v3.696h-4.792v.583h4.926v-4.423h4.24V-11.183h1.177v-2.003h13.551v5.898h.593v3.63h-.593v2.001l.535-.265c1.271-.63 2.313-1.478 3.066-2.488h-2.73v-3.952h4.102l.001-.132v-.66h-4.102v-4.032h8.343v4.42c0 .108-.002.216-.005.324h.972v-4.888h4.24V2.016z" style="stroke:none" transform="translate(46.312 14.08)"/>
        <path d="M34.994 1.41v-2.997h5.112V-4.15H26.853v2.564h5.128V1.41h3.013m-10.208-.144v-6.25h1.65v-2.708h-1.65v-4.888h-2.74V1.266h2.74m-14.118 0V-12.58h-2.74V1.266h2.74m-14.423 0V-12.58h-2.74v4.888h-2.308v2.708h2.307v6.25h2.74m-14.422 0v-5.032h-12.051v5.032h12.051m-9.31-2.997h6.57v.946h-6.57v-.946m-5.113 2.997V-.625h-9.166v-.48h8.862v-4.248h-11.603v1.875h8.862v.481h-8.862v4.263H-32.6m17.949-.593c3.605-1.955 5.689-5.433 5.689-9.439v-3.67h-6.843v2.532h4.102v1.41c0 .305-.016.593-.048.882h-4.054v2.452h3.317c-.801 1.618-2.195 2.98-4.07 3.91l1.907 1.923M21.164.657v-2.548H15.62v-10.545h-2.74V.657h8.285m-14.118 0v-2.484H5.17l.817-7.147H3.44l-.833 7.147h-.753v-7.147H-.71v7.147h-.978V.657h8.734m-24.631-5.064v-2.131h-7.003v-.994h3.67v.48h2.74v-5.384h-12.051v2.148h9.31v.705h-9.31v2.051h2.9v.994h-3.509v2.13h13.253m57.098-.945v-7.083H27.462v7.083h12.051m-9.31-4.55h6.57v2.018h-6.57v-2.019m-63.108 4.15v-2.018h1.65v-2.66h-1.65v-2.148h-2.74v6.827h2.74m-3.622-.209v-2.195h-5.545v-2.083h4.792v-2.196h-7.532v6.474h8.285M6.597-9.904v-2.532h-8.14v2.532h8.14M36.494 2.91H30.48V-.087h-4.195v2.853h-5.74v-.61h-8.378v.61h-5.74v-.61h-8.683v.61h-5.74v-6.25h-.648c-.16.335-.336.662-.528.98-1.116 1.855-2.764 3.41-4.766 4.496l-.989.535-1.752-1.766v2.005h-29.33v-7.228h-.304v-9.474h9.166v-.144h5.74v.144h23.41v-.144h5.74v.144h8.683v-.144h5.74v.144h4.952V-3.39h3.426V-14.08h5.74v.144h14.728v8.285h.593v5.564h-5.112V2.91zm-52.58-6.57v.391a7.89 7.89 0 0 0 .514-.391h-.513zm13.83.333h.046v-5.077h-.045v5.077z" style="fill:#52321f;stroke:none" transform="translate(46.312 14.08)"/>
    </g>
</svg>
