<svg data-name="Icons / Hand" xmlns="http://www.w3.org/2000/svg" width="36" height="36" viewBox="0 0 36 36">
    <path d="M36 36H0V0h36v36z" style="fill:transparent"/>
    <g data-name="타원 116" transform="translate(10)" style="stroke:#000;stroke-width:1.4px;fill:#ff592e">
        <circle cx="5" cy="5" r="5" style="stroke:none"/>
        <circle cx="5" cy="5" r="4.3" style="fill:none"/>
    </g>
    <g data-name="그룹 1919">
        <path data-name="패스 664" d="M7223.21-7183.479v-12.75a2.251 2.251 0 0 1 2.251-2.251 2.248 2.248 0 0 1 2.249 2.251v11.25" transform="translate(-7210.516 7202.98)" style="stroke-linecap:round;stroke-linejoin:round;fill:#fff;stroke:#000;stroke-width:1.4px"/>
        <path data-name="패스 665" d="M7226.21-7188.25v-3a2.251 2.251 0 0 1 2.25-2.251 2.25 2.25 0 0 1 2.25 2.25v3.751" transform="translate(-7209.016 7205.471)" style="fill:none;stroke-linecap:round;stroke-linejoin:round;stroke:#000;stroke-width:1.4px"/>
        <path data-name="패스 666" d="M7229.21-7190.25a2.25 2.25 0 0 1 2.25-2.25 2.249 2.249 0 0 1 2.25 2.25v2.25" transform="translate(-7207.516 7205.971)" style="fill:none;stroke-linecap:round;stroke-linejoin:round;stroke:#000;stroke-width:1.4px"/>
        <path data-name="패스 667" d="M7238.942-7189.25a2.25 2.25 0 0 1 2.25-2.25 2.249 2.249 0 0 1 2.25 2.25v6.75a9 9 0 0 1-9 9h-2.686a9 9 0 0 1-7.5-4.051l-.3-.449q-.706-1.08-4.936-8.595a2.251 2.251 0 0 1 .811-3 2.79 2.79 0 0 1 3.42.42l2.205 2.206" transform="translate(-7212.748 7206.471)" style="fill:none;stroke-linecap:round;stroke-linejoin:round;stroke:#000;stroke-width:1.4px"/>
    </g>
</svg>
