<svg xmlns="http://www.w3.org/2000/svg" width="15.901" height="19.528" viewBox="0 0 15.901 19.528">
    <defs>
        <style>
            .cls-1{fill:#a7a7a7}
        </style>
    </defs>
    <g id="그룹_462" transform="translate(-352.981 -214.176)">
        <g id="그룹_461" transform="translate(352.981 214.176)">
            <path id="패스_275" d="M366.262 260.061a4.41 4.41 0 0 1 2.107-3.712 4.571 4.571 0 0 0-3.568-1.94c-1.522-.153-2.971.9-3.74.9s-1.963-.872-3.222-.847a4.779 4.779 0 0 0-4.039 2.438c-1.722 2.988-.442 7.417 1.239 9.84.819 1.186 1.8 2.518 3.079 2.471 1.239-.048 1.707-.8 3.2-.8s1.915.8 3.224.779c1.33-.028 2.174-1.214 2.986-2.4a10.83 10.83 0 0 0 1.353-2.78 4.308 4.308 0 0 1-2.619-3.949z" class="cls-1" transform="translate(-352.981 -249.688)"/>
            <path id="패스_276" d="M423.434 217.293a4.282 4.282 0 0 0 1.017-3.117 4.372 4.372 0 0 0-2.874 1.478 4.091 4.091 0 0 0-1.038 3.024 3.624 3.624 0 0 0 2.895-1.385z" class="cls-1" transform="translate(-412.613 -214.176)"/>
        </g>
    </g>
</svg>
