<svg xmlns="http://www.w3.org/2000/svg" width="168.127" height="35.363" viewBox="0 0 168.127 35.363">
    <g>
        <g>
            <g>
                <path d="M0 0L0 34.604" transform="translate(37.707) translate(1.007 0)"/>
                <path d="M0 0H2.015V34.604H0z" transform="translate(37.707)"/>
            </g>
            <g>
                <path d="M0 0L0 34.604" transform="translate(4.815) translate(3.358 0)"/>
                <path d="M0 0H6.716V34.604H0z" transform="translate(4.815)"/>
            </g>
            <g>
                <path d="M0 0L0 34.308" transform="translate(25.343) translate(2.695 1.054)"/>
                <path d="M0 0H5.373V34.604H0z" transform="translate(25.343)"/>
            </g>
            <g>
                <path d="M0 0L0 34.604" transform="translate(1.007 0)"/>
                <path d="M0 0H2.015V34.604H0z"/>
            </g>
            <g>
                <path d="M0 0L0 34.604" transform="translate(14.792) translate(1.007 0)"/>
                <path d="M0 0H2.015V34.604H0z" transform="translate(14.792)"/>
            </g>
            <g>
                <path d="M0 0L0 34.604" transform="translate(20.403) translate(1.008 0)"/>
                <path d="M0 0H2.015V34.604H0z" transform="translate(20.403)"/>
            </g>
            <g>
                <path d="M0 0L0 34.604" transform="translate(33.977) translate(0.672 0)"/>
                <path d="M0 0H1.343V34.604H0z" transform="translate(33.977)"/>
            </g>
        </g>
    </g>
    <g>
        <g>
            <g>
                <path d="M0 0L0 34.604" transform="translate(85.604) translate(37.707) translate(1.007 0)"/>
                <path d="M0 0H2.015V34.604H0z" transform="translate(85.604) translate(37.707)"/>
            </g>
            <g>
                <path d="M0 0L0 34.604" transform="translate(85.604) translate(4.815) translate(3.358 0)"/>
                <path d="M0 0H6.716V34.604H0z" transform="translate(85.604) translate(4.815)"/>
            </g>
            <g>
                <path d="M0 0L0 34.308" transform="translate(85.604) translate(25.343) translate(2.695 1.054)"/>
                <path d="M0 0H5.373V34.604H0z" transform="translate(85.604) translate(25.343)"/>
            </g>
            <g>
                <path d="M0 0L0 34.604" transform="translate(85.604) translate(1.007 0)"/>
                <path d="M0 0H2.015V34.604H0z" transform="translate(85.604)"/>
            </g>
            <g>
                <path d="M0 0L0 34.604" transform="translate(85.604) translate(14.792) translate(1.007 0)"/>
                <path d="M0 0H2.015V34.604H0z" transform="translate(85.604) translate(14.792)"/>
            </g>
            <g>
                <path d="M0 0L0 34.604" transform="translate(85.604) translate(20.403) translate(1.008 0)"/>
                <path d="M0 0H2.015V34.604H0z" transform="translate(85.604) translate(20.403)"/>
            </g>
            <g>
                <path d="M0 0L0 34.604" transform="translate(85.604) translate(33.977) translate(0.672 0)"/>
                <path d="M0 0H1.343V34.604H0z" transform="translate(85.604) translate(33.977)"/>
            </g>
        </g>
    </g>
    <g>
        <g>
            <g>
                <path d="M0 0L0 34.604" transform="translate(42.802) translate(37.707) translate(1.007 0)"/>
                <path d="M0 0H2.015V34.604H0z" transform="translate(42.802) translate(37.707)"/>
            </g>
            <g>
                <path d="M0 0L0 34.604" transform="translate(42.802) translate(4.815) translate(3.358 0)"/>
                <path d="M0 0H6.716V34.604H0z" transform="translate(42.802) translate(4.815)"/>
            </g>
            <g>
                <path d="M0 0L0 34.308" transform="translate(42.802) translate(25.343) translate(2.695 1.054)"/>
                <path d="M0 0H5.373V34.604H0z" transform="translate(42.802) translate(25.343)"/>
            </g>
            <g>
                <path d="M0 0L0 34.604" transform="translate(42.802) translate(1.007 0)"/>
                <path d="M0 0H2.015V34.604H0z" transform="translate(42.802)"/>
            </g>
            <g>
                <path d="M0 0L0 34.604" transform="translate(42.802) translate(14.792) translate(1.007 0)"/>
                <path d="M0 0H2.015V34.604H0z" transform="translate(42.802) translate(14.792)"/>
            </g>
            <g>
                <path d="M0 0L0 34.604" transform="translate(42.802) translate(20.403) translate(1.008 0)"/>
                <path d="M0 0H2.015V34.604H0z" transform="translate(42.802) translate(20.403)"/>
            </g>
            <g>
                <path d="M0 0L0 34.604" transform="translate(42.802) translate(33.977) translate(0.672 0)"/>
                <path d="M0 0H1.343V34.604H0z" transform="translate(42.802) translate(33.977)"/>
            </g>
        </g>
    </g>
    <g>
        <g>
            <g>
                <path d="M0 0L0 34.604" transform="translate(128.406) translate(37.707) translate(1.007 0)"/>
                <path d="M0 0H2.015V34.604H0z" transform="translate(128.406) translate(37.707)"/>
            </g>
            <g>
                <path d="M0 0L0 34.604" transform="translate(128.406) translate(4.815) translate(3.358 0)"/>
                <path d="M0 0H6.716V34.604H0z" transform="translate(128.406) translate(4.815)"/>
            </g>
            <g>
                <path d="M0 0L0 34.308" transform="translate(128.406) translate(25.343) translate(2.695 1.054)"/>
                <path d="M0 0H5.373V34.604H0z" transform="translate(128.406) translate(25.343)"/>
            </g>
            <g>
                <path d="M0 0L0 34.604" transform="translate(128.406) translate(1.007 0)"/>
                <path d="M0 0H2.015V34.604H0z" transform="translate(128.406)"/>
            </g>
            <g>
                <path d="M0 0L0 34.604" transform="translate(128.406) translate(14.792) translate(1.007 0)"/>
                <path d="M0 0H2.015V34.604H0z" transform="translate(128.406) translate(14.792)"/>
            </g>
            <g>
                <path d="M0 0L0 34.604" transform="translate(128.406) translate(20.403) translate(1.008 0)"/>
                <path d="M0 0H2.015V34.604H0z" transform="translate(128.406) translate(20.403)"/>
            </g>
            <g>
                <path d="M0 0L0 34.604" transform="translate(128.406) translate(33.977) translate(0.672 0)"/>
                <path d="M0 0H1.343V34.604H0z" transform="translate(128.406) translate(33.977)"/>
            </g>
        </g>
    </g>
</svg>
