<svg id="그룹_795" data-name="그룹 795" xmlns="http://www.w3.org/2000/svg" width="14" height="15.047" viewBox="0 0 14 15.047">
    <defs>
        <clipPath id="clip-path">
            <path id="사각형_718" data-name="사각형 718" class="cls-1" d="M0 0h14v15.047H0z"/>
        </clipPath>
        <style>
            .cls-1{fill:#67d94b}
        </style>
    </defs>
    <g id="그룹_794" data-name="그룹 794" style="clip-path:url(#clip-path)">
        <path id="패스_466" data-name="패스 466" class="cls-1" d="M2.4 14.154a5.4 5.4 0 0 1-.1-2.645 5.013 5.013 0 0 1 1.069-2.067 11.388 11.388 0 0 1 4.318-2.883 7.189 7.189 0 0 0 1.272-.641 4.954 4.954 0 0 0 .985-.895A6.393 6.393 0 0 0 11.1 2.882a9.184 9.184 0 0 0 .4-1.9c.015-.146.029-.293.037-.441C8.912-.841 4.977.493 2.336 3.8-.546 7.408-.8 12 1.78 14.059a4.326 4.326 0 0 0 .725.469q-.06-.187-.11-.374"/>
        <path id="패스_467" data-name="패스 467" class="cls-1" d="M46.331 9.391a4.334 4.334 0 0 0-.54-.368 5.973 5.973 0 0 1 .048 2.388 8.419 8.419 0 0 1-.269.941 6.324 6.324 0 0 1-1.211 2.127 4.885 4.885 0 0 1-1.016.874 9.157 9.157 0 0 1-1.282.619 10.985 10.985 0 0 0-4.268 2.92 5.329 5.329 0 0 0-.6.909 5.058 5.058 0 0 0-.489 3.175c2.621 1.27 6.469-.074 9.066-3.325 2.883-3.609 3.132-8.2.556-10.261" transform="translate(-34.111 -8.403)"/>
    </g>
</svg>
