<svg xmlns="http://www.w3.org/2000/svg" width="26" height="26" viewBox="0 0 26 26">
    <path data-name="패스 193" d="M547.633 136.072v-4.145l-2.438-.491a7.9 7.9 0 0 0-.445-1.067l1.378-2.074-2.93-2.931-2.074 1.378a8.1 8.1 0 0 0-1.068-.445l-.492-2.437h-4.144l-.492 2.437a8.1 8.1 0 0 0-1.067.445l-2.074-1.378-2.93 2.931 1.378 2.074a8 8 0 0 0-.445 1.067l-2.438.491v4.145l2.438.491a8.046 8.046 0 0 0 .445 1.067l-1.378 2.074 2.93 2.931 2.074-1.378a8.1 8.1 0 0 0 1.067.445l.492 2.437h4.144l.492-2.437a8.1 8.1 0 0 0 1.068-.445l2.074 1.378 2.93-2.931-1.378-2.074a7.949 7.949 0 0 0 .445-1.067zm-10.141.952a3.024 3.024 0 0 1 0-6.049 3.214 3.214 0 0 1 2.055.806 2.856 2.856 0 0 1 .969 2.219 3.024 3.024 0 0 1-3.024 3.025z" transform="translate(-524.423 -120.827)" style="fill:#fffdfe;stroke:#000;stroke-miterlimit:10"/>
</svg>
