<svg xmlns="http://www.w3.org/2000/svg" width="17.021" height="17.021" viewBox="0 0 17.021 17.021">
    <g data-name="그룹 357" style="opacity:.4">
        <g data-name="타원 52" transform="translate(-.001 -.001)" style="stroke:#000;fill:#fff">
            <circle cx="8.511" cy="8.511" r="8.511" style="stroke:none"/>
            <circle cx="8.511" cy="8.511" r="8.011" style="fill:none"/>
        </g>
        <path data-name="패스 192" d="M-.743-2.338h.992V-1.3h-.992zm-1.68-3.993a2.445 2.445 0 0 1 .608-1.732 2.166 2.166 0 0 1 1.67-.656 2.19 2.19 0 0 1 1.573.561 1.89 1.89 0 0 1 .591 1.433 1.533 1.533 0 0 1-.217.857 6.825 6.825 0 0 1-.875.968 2.8 2.8 0 0 0-.621.785 2.451 2.451 0 0 0-.142.95h-.887a3.231 3.231 0 0 1 .17-1.149 3.1 3.1 0 0 1 .743-1l.4-.394a1.65 1.65 0 0 0 .289-.354 1.267 1.267 0 0 0 .2-.673 1.3 1.3 0 0 0-.292-.847 1.174 1.174 0 0 0-.967-.359 1.18 1.18 0 0 0-1.152.618 2.4 2.4 0 0 0-.2.992z" transform="translate(8.712 13.52)" style="stroke-width:.2px;stroke:#000"/>
    </g>
</svg>
