<svg xmlns="http://www.w3.org/2000/svg" width="18" height="18" viewBox="0 0 18 18">
    <g data-name="패스 41" style="fill:none">
        <path d="M9 0a9 9 0 1 1-9 9 9 9 0 0 1 9-9z" style="stroke:none"/>
        <path d="M9 1C4.589 1 1 4.589 1 9s3.589 8 8 8 8-3.589 8-8-3.589-8-8-8m0-1a9 9 0 1 1 0 18A9 9 0 0 1 9 0z" style="fill:#fff;stroke:none"/>
    </g>
    <path data-name="패스 37" d="M7.982-1.789H7.2l.459-1.836H6.438l-.371 1.836h-.918l-.408-1.836H3.422l-.4 1.836H2.1l-.375-1.836H.443L.9-1.789H.115v1h1.034l.779 3.1h1.2L4.049-1.8l.918 4.109h1.2l.779-3.1h1.036zM2.3-.791h.5L2.541.382zM5.63.4 5.367-.791h.5z" transform="translate(4.951 9.93)" style="fill:#fff"/>
</svg>
