<svg xmlns="http://www.w3.org/2000/svg" width="16" height="16" viewBox="0 0 16 16">
    <g fill="none" opacity="0.6">
        <path d="M671.226 668.159a1.85 1.85 0 0 0-.951-1.212 13.833 13.833 0 0 0-1.779-1.016 1.418 1.418 0 0 0-1.722.352l-.623.616c-.329.281-.9.1-1.256-.236l-1.544-1.451-1.53-1.623c-.337-.359-.517-.927-.247-1.243l.627-.634a1.418 1.418 0 0 0 .352-1.723 13.811 13.811 0 0 0-1.014-1.777 1.85 1.85 0 0 0-1.213-.953 2.436 2.436 0 0 0-1.787.71 4.419 4.419 0 0 0-1.146 1.637c-.911 2.752 2.571 6.209 3.881 7.509l.094.094c1.154 1.162 4 4.032 6.553 4.032a3.04 3.04 0 0 0 .958-.15 4.418 4.418 0 0 0 1.645-1.155 2.426 2.426 0 0 0 .702-1.777z" transform="translate(-656.243 -656.242)"/>
        <path fill="#000" d="M667.922 671.242c.325 0 .646-.047.957-.15.875-.29 1.607-1.11 1.645-1.155.384-.482.812-1.12.702-1.778-.076-.456-.387-.852-.95-1.212-.07-.046-1.098-.73-1.78-1.016-.965-.405-1.496.126-1.722.352l-.623.616c-.328.281-.896.101-1.255-.236l-1.544-1.45-1.53-1.623c-.336-.36-.517-.927-.247-1.243l.627-.635c.227-.226.758-.757.352-1.723-.29-.69-.987-1.737-1.014-1.777-.36-.565-.757-.877-1.214-.953-.656-.11-1.295.318-1.787.71-.035.03-.856.763-1.145 1.637-.911 2.752 2.57 6.209 3.881 7.51l.094.094c1.154 1.162 4.003 4.032 6.553 4.032m0 1c-2.965 0-5.975-3.031-7.261-4.326l-.094-.094c-.669-.664-1.92-1.907-2.896-3.36-1.306-1.944-1.718-3.684-1.227-5.17.369-1.113 1.327-1.979 1.435-2.074l.037-.03c.552-.44 1.3-.946 2.197-.946.128 0 .255.01.379.031.737.123 1.371.591 1.884 1.39.082.124.78 1.175 1.1 1.94.347.825.23 1.483.07 1.89-.185.474-.488.777-.635.924l-.414.419c.016.023.034.047.055.07l1.507 1.599 1.522 1.43c.022.02.046.039.069.053l.42-.416c.214-.214.79-.789 1.755-.789.345 0 .7.076 1.058.226.755.317 1.786.998 1.94 1.101.799.513 1.266 1.147 1.39 1.884.196 1.181-.605 2.187-.907 2.566l-.028.034c-.095.11-.96 1.076-2.085 1.447-.4.133-.828.2-1.27.2z" transform="translate(-656.243 -656.242)"/>
    </g>
</svg>
