<svg xmlns="http://www.w3.org/2000/svg" width="30" height="30" viewBox="0 0 30 30">
    <defs>
        <style>
            .cls-2{fill:#fff}.cls-3,.cls-4{stroke:none}.cls-4{fill:#000}
        </style>
    </defs>
    <g id="icon_cart" transform="translate(-32.087 -52.087)">
        <g id="그룹_190" transform="translate(34.876 57.816)">
            <g id="패스_144" class="cls-2">
                <path d="M5.212 14.933c-.112 0-.229-.005-.347-.015l-.045-.004-.045.004c-.069.004-.138.007-.205.007-.815 0-1.489-.352-2.06-1.076-.52-.658-.943-1.614-1.259-2.842C.713 8.916.6 6.49.6 4.826.6 2.496 2.492.6 4.817.6c2.325 0 4.216 1.896 4.216 4.226 0 .212.004.452.008.73.03 2.171.096 6.688-1.727 8.538-.556.564-1.244.839-2.102.839z" class="cls-3" transform="translate(7.385 -1.767)"/>
                <path d="M4.817 1.2C2.822 1.2 1.2 2.826 1.2 4.826c0 1.63.11 4.001.632 6.031.295 1.147.682 2.028 1.15 2.62.494.628 1.045.89 1.752.842l.09-.006.09.007c.102.008.202.013.298.013.699 0 1.23-.21 1.674-.66C8.534 12 8.471 7.654 8.441 5.565c-.004-.28-.008-.523-.008-.74 0-1.999-1.622-3.625-3.616-3.625m0-1.2c2.66 0 4.816 2.16 4.816 4.826 0 2.665.578 11.129-4.816 10.69C.273 15.83 0 7.491 0 4.826 0 2.16 2.156 0 4.817 0z" class="cls-4" transform="translate(7.385 -1.767)"/>
            </g>
            <g id="패스_131" class="cls-2">
                <path d="M16.415 15.327H-.4V.6h16.815v14.727z" class="cls-3" transform="translate(4.203 3.044)"/>
                <path d="M.2 1.2v13.527h15.615V1.2H.2M-1 0h18.015v15.927H-1V0z" class="cls-4" transform="translate(4.203 3.044)"/>
            </g>
        </g>
    </g>
</svg>
