<svg xmlns="http://www.w3.org/2000/svg" width="39" height="36" viewBox="0 0 39 36">
    <defs>
        <style>
            .cls-2{fill:#fff}.cls-5{fill:#020202}
        </style>
    </defs>
    <g id="icon_store_info" transform="translate(-170 -1442)">
        <g id="그룹_95" transform="translate(32 1392)">
            <g id="그룹_74" transform="translate(138 50)"/>
            <g id="그룹_158" transform="translate(143 54)">
                <path id="패스_95" d="M211.394 219.043h-26.11v-19.982l13.055-7.087 13.055 7.087z" class="cls-2" transform="translate(-185.284 -191.974)"/>
                <path id="패스_96" fill="none" stroke="#020202" stroke-miterlimit="10" d="M185.658 219.043v-19.982l13.055-7.087 13.055 7.087v19.982" transform="translate(-185.57 -191.974)"/>
                <path id="패스_97" fill="#ff592e" stroke="#020202" stroke-miterlimit="10" d="M230.441 263.912v-13.19h-9.385v13.19" transform="translate(-212.605 -236.843)"/>
                <path id="사각형_186" d="M0 0H4.333V4.333H0z" class="cls-2" transform="translate(10.977 16.016)"/>
                <g id="그룹_129" transform="translate(3.363 8.619)">
                    <path id="사각형_187" d="M0 0H0.963V1.211H0z" class="cls-5"/>
                    <path id="사각형_188" d="M0 0H0.963V1.211H0z" class="cls-5" transform="translate(9.211)"/>
                    <path id="사각형_189" d="M0 0H0.963V1.211H0z" class="cls-5" transform="translate(18.422)"/>
                </g>
                <path id="사각형_190" d="M0 0H0.963V1.211H0z" class="cls-5" transform="translate(3.455 16.972)"/>
                <path id="사각형_191" d="M0 0H0.963V1.211H0z" class="cls-5" transform="translate(21.877 16.972)"/>
            </g>
        </g>
        <g id="그룹_211">
            <g id="그룹_31" transform="translate(161 940)">
                <circle id="타원_15" cx="8" cy="8" r="8" transform="translate(32 503)"/>
            </g>
            <path id="패스_138" d="M.747-2.187h1.116L2.142-6.3H.468zM1.305.072a.827.827 0 0 0 .864-.819.808.808 0 0 0-.864-.8.808.808 0 0 0-.864.8.827.827 0 0 0 .864.819z" class="cls-2" transform="translate(199.559 1454.3)"/>
        </g>
    </g>
</svg>
