<svg xmlns="http://www.w3.org/2000/svg" width="14" height="14" viewBox="0 0 14 14">
    <g style="opacity:.5">
        <g data-name="타원 15" style="fill:#fff;stroke:#000">
            <circle cx="7" cy="7" r="7" style="stroke:none"/>
            <circle cx="7" cy="7" r="6.5" style="fill:none"/>
        </g>
        <path data-name="패스 192" d="M6.542 9.452h.91v.952h-.91zM5 5.788a2.244 2.244 0 0 1 .558-1.59 1.988 1.988 0 0 1 1.533-.6 2.01 2.01 0 0 1 1.443.517 1.734 1.734 0 0 1 .542 1.315 1.407 1.407 0 0 1-.2.787 6.263 6.263 0 0 1-.8.888 2.568 2.568 0 0 0-.57.721 2.249 2.249 0 0 0-.13.871H6.56a2.966 2.966 0 0 1 .156-1.059 2.841 2.841 0 0 1 .682-.917l.365-.362a1.514 1.514 0 0 0 .266-.324 1.162 1.162 0 0 0 .183-.62 1.2 1.2 0 0 0-.268-.778 1.078 1.078 0 0 0-.885-.329 1.083 1.083 0 0 0-1.057.567 2.2 2.2 0 0 0-.188.91z"/>
    </g>
</svg>
