<svg xmlns="http://www.w3.org/2000/svg" width="26" height="26" viewBox="0 0 26 26">
    <g>
        <g fill="#fff">
            <path d="M670.22 674.754c-3.306 0-6.817-3.536-8.316-5.046l-.115-.115c-1.652-1.64-6.042-5.997-4.838-9.635.396-1.197 1.49-2.167 1.537-2.208l.009-.008.009-.007c.58-.463 1.356-.993 2.225-.993.115 0 .23.01.341.028.7.117 1.293.567 1.81 1.377.07.103.908 1.363 1.276 2.24.623 1.483-.25 2.354-.536 2.64l-.742.751c-.086.125-.006.518.292.836l1.848 1.96 1.864 1.752c.204.19.481.32.69.32.093 0 .138-.026.159-.041l.74-.733c.223-.224.751-.751 1.628-.751.324 0 .664.073 1.01.218.87.366 2.142 1.21 2.242 1.277.808.518 1.257 1.11 1.375 1.81.165.993-.424 1.886-.956 2.554l-.007.008-.007.009c-.04.047-1.012 1.15-2.218 1.55-.416.137-.86.206-1.32.207z" transform="translate(2558 652) translate(-3210.75 -1304.748)"/>
            <path fill="#000" d="M670.22 674.254c.394 0 .784-.057 1.163-.182 1.062-.352 1.951-1.35 1.998-1.404.467-.586.986-1.362.853-2.16-.092-.554-.47-1.036-1.155-1.473-.084-.056-1.333-.887-2.162-1.235-1.173-.492-1.818.153-2.093.428l-.756.749c-.4.341-1.09.123-1.526-.287l-1.876-1.762-1.859-1.972c-.409-.437-.628-1.127-.3-1.511l.762-.77c.275-.276.92-.921.428-2.095-.352-.84-1.2-2.111-1.233-2.16-.438-.686-.92-1.064-1.474-1.157-.798-.134-1.574.386-2.172.863-.043.037-1.04.926-1.392 1.989-1.107 3.344 3.124 7.544 4.716 9.125l.115.114c1.402 1.413 4.864 4.9 7.962 4.9m0 1c-3.513 0-7.127-3.64-8.67-5.193l-.114-.115c-.81-.803-2.32-2.302-3.493-4.05-1.548-2.305-2.041-4.356-1.466-6.095.431-1.302 1.555-2.316 1.682-2.427l.036-.03c.643-.513 1.513-1.102 2.537-1.102.142 0 .285.012.424.035.834.139 1.557.676 2.146 1.597.097.145.94 1.416 1.318 2.32.311.74.34 1.479.083 2.135-.21.534-.556.882-.724 1.05l-.61.618c.026.075.08.181.169.275l1.836 1.948 1.854 1.741c.095.09.202.144.275.168l.619-.612c.243-.243.896-.896 1.98-.896.39 0 .795.086 1.203.257.9.378 2.144 1.2 2.323 1.32.918.589 1.454 1.31 1.594 2.145.223 1.34-.707 2.509-1.058 2.948l-.028.034c-.111.128-1.126 1.262-2.438 1.696-.466.154-.963.232-1.477.233z" transform="translate(2558 652) translate(-3210.75 -1304.748)"/>
        </g>
    </g>
</svg>
