<svg xmlns="http://www.w3.org/2000/svg" viewBox="0 0 25 25"><defs><style>.cls-1{fill:#ff592e;opacity:0;}.cls-2{fill:#989898;}</style></defs><g id="레이어_2" data-name="레이어 2"><g id="레이어_1-2" data-name="레이어 1"><rect class="cls-1" width="25" height="25"/><path class="cls-2" d="M12.45,20.25l-.3-.18c-.35-.2-8.45-5-8.45-9.83A5.24,5.24,0,0,1,7.14,5.18a5.18,5.18,0,0,1,5.31,1,5.2,5.2,0,0,1,5.34-.95,5.2,5.2,0,0,1,3.51,5c0,4.87-8.2,9.63-8.55,9.83ZM9,6a4,4,0,0,0-1.43.26A4.06,4.06,0,0,0,4.9,10.24C4.9,14,11,18,12.45,18.86,13.91,18,20.1,14,20.1,10.24a4,4,0,0,0-2.72-3.89,4,4,0,0,0-4.47,1.07L12.46,8,12,7.43A4,4,0,0,0,9,6Z"/></g></g></svg>