<svg xmlns="http://www.w3.org/2000/svg" width="16" height="12" viewBox="0 0 16 12">
    <g opacity="0.8">
        <g>
            <g>
                <path d="M343.751 1964.415h-13.509v-3.894h13.509zm-12.832-.716h12.155v-2.462h-12.155z" transform="translate(0) translate(1.071 0.613) translate(0 7.232) translate(-330.242 -1960.521)"/>
            </g>
            <g>
                <path d="M0 0H1.425V3.178H0z" transform="translate(0) translate(1.071 0.613) translate(11.7 7.59)"/>
            </g>
            <g>
                <g>
                    <path d="M421.32 1901.6a1.671 1.671 0 0 1-.247.523 1.233 1.233 0 0 0 .008 1.646 1.9 1.9 0 0 1 .412 1.509 2 2 0 0 1-.776 1.222h-1.026a3.3 3.3 0 0 0 .973-1.391 1.015 1.015 0 0 0-.261-.826 2.169 2.169 0 0 1-.047-2.682" transform="translate(0) translate(1.071 0.613) translate(12.097 0.087) translate(0 0) translate(-419.692 -1901.598)"/>
                </g>
            </g>
            <g>
                <g>
                    <path d="M404.764 1900.993a1.669 1.669 0 0 1-.247.523 1.232 1.232 0 0 0 .008 1.646 1.9 1.9 0 0 1 .412 1.509 2 2 0 0 1-.776 1.222h-1.026a3.3 3.3 0 0 0 .973-1.392 1.015 1.015 0 0 0-.261-.826 2.169 2.169 0 0 1-.047-2.682" transform="translate(0) translate(1.071 0.613) translate(10.07) translate(0) translate(-403.136 -1900.993)"/>
                </g>
            </g>
        </g>
    </g>
</svg>
