<svg xmlns="http://www.w3.org/2000/svg" width="16" height="12" viewBox="0 0 16 12">
    <g opacity="0.8">
        <g>
            <path d="M316.1 1779.628h-.8v-11.716l.606.011h4.015a5.2 5.2 0 0 1 3.432 1.076 3.217 3.217 0 0 1 1.012 2.489v.389a3.212 3.212 0 0 1-1.009 2.482 5.209 5.209 0 0 1-3.435 1.083H316.1zm0-4.963h3.855a4.465 4.465 0 0 0 2.854-.874 2.479 2.479 0 0 0 .755-1.915v-.389a2.483 2.483 0 0 0-.76-1.924 4.431 4.431 0 0 0-2.849-.866H316.1z" transform="translate(3.468 0.142) translate(-315.296 -1767.912)"/>
        </g>
    </g>
</svg>
