<svg xmlns="http://www.w3.org/2000/svg" width="30" height="30" viewBox="0 0 30 30">
    <g>
        <g>
            <g stroke="#000" stroke-miterlimit="10">
                <path fill="#fff" d="M1122.3-392.8l-1.923-2.184.575-2.854-2.76-.926-.926-2.76-2.854.575-2.184-1.924-2.184 1.924-2.854-.575-.927 2.76-2.76.926.575 2.854-1.923 2.184 1.923 2.184-.575 2.854 2.76.926.927 2.76 2.854-.575 2.184 1.924 2.184-1.924 2.854.575.926-2.76 2.76-.926-.575-2.854z" transform="translate(-136 -50) translate(136 50) translate(4.68 4.68) translate(-1102.152 402.877)"/>
                <path fill="none" d="M1156.694-346.677l-2.856 2.856-2.005-2.005" transform="translate(-136 -50) translate(136 50) translate(4.68 4.68) translate(-1144.189 355.323)"/>
            </g>
        </g>
    </g>
</svg>
