<svg xmlns="http://www.w3.org/2000/svg" width="28" height="28" viewBox="0 0 28 28">
    <g data-name="그룹 74">
        <g data-name="그룹 79">
            <path data-name="패스 42" d="m1123.151-392.376-2-2.277.6-2.975-2.877-.966-.965-2.877-2.975.6-2.277-2.005-2.277 2.005-2.975-.6-.966 2.877-2.877.966.6 2.975-2 2.277 2 2.277-.6 2.975 2.877.966.966 2.877 2.975-.6 2.277 2.005 2.277-2.005 2.975.6.966-2.877 2.877-.966-.6-2.975z" transform="translate(-1098.651 406.376)" style="stroke:#000;stroke-miterlimit:10;fill:#fff"/>
            <path data-name="패스 43" d="m1156.9-346.677-2.977 2.977-2.09-2.09" transform="translate(-1140.365 359.189)" style="fill:none;stroke:#000;stroke-miterlimit:10"/>
        </g>
    </g>
</svg>
