<svg xmlns="http://www.w3.org/2000/svg" width="16" height="12" viewBox="0 0 16 12">
    <g opacity="0.8">
        <g>
            <path d="M161.7 1844.965a1.261 1.261 0 0 0-1.74 0l.87.844z" transform="translate(0.068 0.455) translate(-152.922 -1834.719)"/>
            <path d="M109.29 1770.424a10.735 10.735 0 0 1 5.743-1.585h.121a10.7 10.7 0 0 1 5.652 1.479 5.731 5.731 0 0 1 1.671 1.541l.562-.544a6.606 6.606 0 0 0-1.807-1.63 12.379 12.379 0 0 0-12.379.114 6.7 6.7 0 0 0-1.678 1.534l.554.548a5.828 5.828 0 0 1 1.561-1.457z" transform="translate(0.068 0.455) translate(-107.175 -1768.083)"/>
            <path d="M131.13 1795.783h.062a7.111 7.111 0 0 1 4.874 2.012l.551-.535a7.89 7.89 0 0 0-5.425-2.233h-.07a7.868 7.868 0 0 0-5.321 2.221l.541.535a7.089 7.089 0 0 1 4.788-2z" transform="translate(0.068 0.455) translate(-123.318 -1791.542)"/>
            <path d="M146.057 1821.919h.031a4.058 4.058 0 0 1 2.55 1l.548-.531a4.855 4.855 0 0 0-3.136-1.229 4.729 4.729 0 0 0-2.92 1.126l.544.538a3.938 3.938 0 0 1 2.383-.904z" transform="translate(0.068 0.455) translate(-138.336 -1814.298)"/>
        </g>
    </g>
</svg>
