<svg xmlns="http://www.w3.org/2000/svg" width="14.495" height="18.362" viewBox="0 0 14.495 18.362">
    <defs>
        <style>
            .cls-2{fill:none}.cls-3,.cls-4{stroke:none}.cls-4{fill:#000}
        </style>
    </defs>
    <g id="Icon_Place" opacity="0.8" transform="translate(-6.533 -3)">
        <g id="그룹_15" transform="translate(7.533 4)">
            <g id="패스_19" class="cls-2">
                <path d="M1008 450.225a6.079 6.079 0 0 0-6.248 5.881c0 4.29 5.606 9.526 5.844 9.747l.4.373.4-.373c.239-.221 5.844-5.456 5.844-9.747a6.079 6.079 0 0 0-6.24-5.881z" class="cls-3" transform="translate(-1001.752 -450.225)"/>
                <path d="M1008 450.225c-3.445 0-6.248 2.638-6.248 5.88 0 4.29 5.606 9.526 5.844 9.747l.404.373.403-.373c.238-.22 5.844-5.456 5.844-9.746 0-3.243-2.803-5.881-6.247-5.881m0-1c3.996 0 7.247 3.087 7.247 6.88 0 2.012-1.022 4.37-3.038 7.007-1.475 1.93-2.962 3.322-3.127 3.474l-1.082 1.001-1.083-1c-.164-.153-1.652-1.546-3.127-3.475-2.016-2.638-3.038-4.995-3.038-7.006 0-3.794 3.251-6.881 7.248-6.881z" class="cls-4" transform="translate(-1001.752 -450.225)"/>
            </g>
            <g id="패스_20" class="cls-2">
                <path d="M1020.659 466.876a2.259 2.259 0 1 0 2.259 2.259 2.262 2.262 0 0 0-2.259-2.259zm1.242 2.32v-.061l-.001.065z" class="cls-3" transform="translate(-1014.411 -462.887)"/>
                <path d="M1020.66 466.876c-1.247 0-2.26 1.014-2.26 2.26 0 1.245 1.013 2.258 2.26 2.258 1.245 0 2.258-1.013 2.258-2.259 0-1.245-1.013-2.259-2.259-2.259m1.242 2.32c.001-.02.004-.04.004-.06 0 .02-.003.04-.004.06m-1.242-3.32c1.797 0 3.26 1.462 3.26 3.26 0 1.796-1.463 3.258-3.26 3.258-1.797 0-3.259-1.462-3.259-3.259s1.462-3.259 3.26-3.259z" class="cls-4" transform="translate(-1014.411 -462.887)"/>
            </g>
        </g>
    </g>
</svg>
