<svg xmlns="http://www.w3.org/2000/svg" width="30" height="30" viewBox="0 0 30 30">
    <g>
        <g>
            <path fill="#fff" stroke="#000" stroke-miterlimit="10" d="M0 0H20.545V14.565H0z" transform="translate(-32.087 -52.087) translate(34.587 58.805) translate(0 0)"/>
            <path fill="none" stroke="#000" stroke-miterlimit="10" d="M0 0L3.608 0" transform="translate(-32.087 -52.087) translate(34.587 58.805) translate(2.961 3.564)"/>
            <g fill="#fff">
                <path d="M6.997 13.493C3.414 13.493.5 10.58.5 6.997.5 3.414 3.414.5 6.997.5c3.582 0 6.496 2.914 6.496 6.497 0 3.582-2.914 6.496-6.496 6.496z" transform="translate(-32.087 -52.087) translate(34.587 58.805) translate(11.269 4.284)"/>
                <path fill="#000" d="M6.997 1C3.69 1 1 3.69 1 6.997c0 3.306 2.69 5.996 5.997 5.996 3.306 0 5.996-2.69 5.996-5.996C12.993 3.69 10.303 1 6.997 1m0-1c3.864 0 6.996 3.133 6.996 6.997s-3.132 6.996-6.996 6.996C3.133 13.993 0 10.861 0 6.997 0 3.133 3.133 0 6.997 0z" transform="translate(-32.087 -52.087) translate(34.587 58.805) translate(11.269 4.284)"/>
            </g>
            <path d="M6.231-2.2H5.62l.357-1.427h-.946L4.742-2.2h-.714l-.317-1.425H2.686L2.375-2.2h-.72l-.288-1.425h-1L.727-2.2H.115v.776h.8L1.525.99h.935l.713-3.19.714 3.19h.934l.606-2.413h.8zm-4.417.776H2.2L2-.51zM4.4-.493l-.2-.929h.391z" transform="translate(-32.087 -52.087) translate(34.587 58.805) translate(15.093 12.81)"/>
        </g>
    </g>
</svg>
