<svg xmlns="http://www.w3.org/2000/svg" width="24" height="24" viewBox="0 0 24 24">
    <g data-name="그룹 755">
        <path d="M672.081 668.827a1.963 1.963 0 0 0-1.009-1.286 14.689 14.689 0 0 0-1.888-1.078 1.505 1.505 0 0 0-1.828.373l-.661.654c-.349.3-.952.108-1.333-.25l-1.638-1.539-1.624-1.722c-.357-.381-.549-.984-.263-1.319l.666-.673a1.5 1.5 0 0 0 .374-1.828 14.665 14.665 0 0 0-1.077-1.886 1.964 1.964 0 0 0-1.288-1.011 2.585 2.585 0 0 0-1.9.753 4.689 4.689 0 0 0-1.216 1.737c-.966 2.92 2.729 6.588 4.119 7.969l.1.1c1.225 1.233 4.248 4.279 6.954 4.279a3.224 3.224 0 0 0 1.016-.159 4.688 4.688 0 0 0 1.745-1.225 2.574 2.574 0 0 0 .751-1.889z" transform="translate(-652.628 -652.627)" style="stroke:#e4e4e4;fill:#e4e4e4"/>
    </g>
</svg>
