<svg xmlns="http://www.w3.org/2000/svg" width="27" height="27" viewBox="0 0 27 27">
    <defs>
        <clipPath id="clip-path">
            <path id="사각형_338" data-name="사각형 338" style="fill:#fff" d="M0 0h14.055v11.744H0z"/>
        </clipPath>
        <style>
            .cls-10{stroke:#000;fill:none}
        </style>
    </defs>
    <g id="icon_menu_01" transform="translate(-30.5 -267.5)">
        <g id="그룹_349" data-name="그룹 349" transform="translate(32.835 273.083)">
            <g id="레이어_2" data-name="레이어 2">
                <g id="그룹_12" data-name="그룹 12">
                    <path id="패스_16" data-name="패스 16" d="M432.186 186.1h2.031a1.734 1.734 0 0 0 1.69-1.776v-3.647a1.735 1.735 0 0 0-1.69-1.776h-2.031" transform="translate(-415.06 -176.802)" style="stroke-miterlimit:10;stroke:#000;fill:#fff"/>
                    <path id="패스_15" data-name="패스 15" d="M330.758 167.045v6.783c0 4.6 3.9 7.911 8.71 7.911s8.71-3.308 8.71-7.911v-6.783z" transform="translate(-330.758 -167.045)" style="fill:none;stroke-miterlimit:10;stroke:#000"/>
                </g>
            </g>
            <g id="마스크_그룹_16" data-name="마스크 그룹 16" transform="translate(9.142 2.949)" style="clip-path:url(#clip-path)">
                <g id="그룹_73" data-name="그룹 73" transform="translate(-1.228)">
                    <g id="그룹_190" data-name="그룹 190" transform="translate(2.961 2.083)">
                        <g id="패스_131" data-name="패스 131" style="fill:#fff">
                            <path d="M10.665 11.386H.5V.5h10.165v10.886z" style="stroke:none"/>
                            <path d="M1 1v9.886h9.165V1H1M0 0h11.165v11.886H0V0z" style="fill:#000;stroke:none"/>
                        </g>
                        <path id="선_84" data-name="선 84" class="cls-10" transform="translate(2.955 3.17)" d="M0 0h5.254"/>
                        <path id="선_85" data-name="선 85" class="cls-10" transform="translate(2.955 5.636)" d="M0 0h5.254"/>
                        <path id="선_86" data-name="선 86" class="cls-10" transform="translate(2.955 8.102)" d="M0 0h5.254"/>
                    </g>
                </g>
            </g>
        </g>
    </g>
</svg>
