<svg xmlns="http://www.w3.org/2000/svg" width="27" height="27" viewBox="0 0 27 27">
    <defs>
        <clipPath id="clip-path">
            <path id="사각형_338" fill="#fff" d="M0 0H14.055V11.744H0z"/>
        </clipPath>
        <style>
            .cls-10{stroke:#000;fill:none}
        </style>
    </defs>
    <g id="icon_menu_01" transform="translate(-30.5 -267.5)">
        <g id="Icon_Order" transform="translate(31 268)"/>
        <g id="그룹_349" transform="translate(32.835 273.083)">
            <g id="레이어_2" transform="translate(0 0)">
                <g id="그룹_12" stroke="#000" stroke-miterlimit="10">
                    <path id="패스_16" fill="#fff" d="M432.186 186.1h2.031a1.734 1.734 0 0 0 1.69-1.776v-3.647a1.735 1.735 0 0 0-1.69-1.776h-2.031" transform="translate(-415.06 -176.802)"/>
                    <path id="패스_15" fill="none" d="M330.758 167.045v6.783c0 4.6 3.9 7.911 8.71 7.911s8.71-3.308 8.71-7.911v-6.783z" transform="translate(-330.758 -167.045)"/>
                </g>
            </g>
            <g id="마스크_그룹_16" clip-path="url(#clip-path)" transform="translate(9.142 2.949)">
                <g id="그룹_73" transform="translate(-1.228)">
                    <g id="그룹_190" transform="translate(2.961 2.083)">
                        <g id="패스_131" fill="#fff" stroke="none">
                            <path d="M10.665 11.386H.5V.5h10.165v10.886z" transform="translate(0 0)"/>
                            <path fill="#000" d="M1 1v9.886h9.165V1H1M0 0h11.165v11.886H0V0z" transform="translate(0 0)"/>
                        </g>
                        <path id="선_84" d="M0 0L5.254 0" class="cls-10" transform="translate(2.955 3.17)"/>
                        <path id="선_85" d="M0 0L5.254 0" class="cls-10" transform="translate(2.955 5.636)"/>
                        <path id="선_86" d="M0 0L5.254 0" class="cls-10" transform="translate(2.955 8.102)"/>
                    </g>
                </g>
            </g>
        </g>
    </g>
</svg>
