<svg xmlns="http://www.w3.org/2000/svg" width="26" height="26" viewBox="0 0 26 26">
    <defs>
        <style>
            .cls-2{fill:#fff}.cls-3,.cls-4{stroke:none}.cls-4{fill:#000}
        </style>
    </defs>
    <g id="icon_03" transform="translate(2558 581)">
        <g id="Icon_Place" transform="translate(-2552.572 -578.071)">
            <g id="그룹_15" transform="translate(0 0)">
                <g id="패스_19" class="cls-2">
                    <path d="M1009.617 471.048l-.34-.314-.507-.47c-.203-.187-2.031-1.898-3.85-4.277-2.434-3.185-3.668-5.998-3.668-8.36 0-4.357 3.753-7.902 8.365-7.902s8.364 3.545 8.364 7.903c0 2.361-1.234 5.174-3.668 8.36-1.816 2.376-3.646 4.089-3.849 4.276l-.508.47-.34.314z" class="cls-3" transform="translate(-1001.752 -450.225)"/>
                    <path d="M1009.617 450.225c-4.337 0-7.865 3.32-7.865 7.403 0 5.4 7.057 11.991 7.357 12.27l.508.469.507-.47c.3-.278 7.357-6.868 7.357-12.27 0-4.081-3.528-7.402-7.864-7.402m0-1c4.888 0 8.864 3.77 8.864 8.403 0 2.474-1.269 5.388-3.77 8.663-1.843 2.41-3.702 4.15-3.907 4.34l-1.187 1.098-1.187-1.098c-.205-.19-2.063-1.928-3.907-4.34-2.502-3.275-3.77-6.19-3.77-8.663 0-4.634 3.976-8.403 8.864-8.403z" class="cls-4" transform="translate(-1001.752 -450.225)"/>
                </g>
                <g id="패스_20" class="cls-2">
                    <path d="M1021.244 473.064c-1.844 0-3.344-1.5-3.344-3.344 0-1.844 1.5-3.344 3.344-3.344 1.844 0 3.344 1.5 3.344 3.344 0 1.844-1.5 3.344-3.344 3.344z" class="cls-3" transform="translate(-1013.379 -461.854)"/>
                    <path d="M1021.244 466.876c-1.568 0-2.844 1.276-2.844 2.844 0 1.568 1.276 2.844 2.844 2.844 1.568 0 2.844-1.276 2.844-2.844 0-1.568-1.276-2.844-2.844-2.844m1.564 2.92c0-.025.004-.05.004-.076 0 .026-.003.05-.004.076m-1.564-3.92c2.12 0 3.844 1.725 3.844 3.844 0 2.12-1.724 3.844-3.844 3.844s-3.844-1.724-3.844-3.844 1.724-3.844 3.844-3.844z" class="cls-4" transform="translate(-1013.379 -461.854)"/>
                </g>
            </g>
        </g>
    </g>
</svg>
