<svg data-name="Icons / Benefit" xmlns="http://www.w3.org/2000/svg" width="24" height="24" viewBox="0 0 24 24">
    <g data-name="그룹 74">
        <g data-name="그룹 79">
            <path data-name="패스 42" d="m1123.151-392.376-2-2.277.6-2.975-2.877-.966-.965-2.877-2.975.6-2.277-2.005-2.277 2.005-2.975-.6-.966 2.877-2.877.966.6 2.975-2 2.277 2 2.277-.6 2.975 2.877.966.966 2.877 2.975-.6 2.277 2.005 2.277-2.005 2.975.6.966-2.877 2.877-.966-.6-2.975z" transform="translate(-1100.651 404.376)" style="stroke-width:1.2px;fill:none;stroke:#000;stroke-miterlimit:10"/>
            <g data-name="그룹 1912">
                <path data-name="Stroke 3" d="M0 4.644 4.644 0" transform="translate(10 10)" style="stroke-linejoin:round;stroke-width:1.2px;fill:none;stroke:#000;stroke-miterlimit:10"/>
                <path data-name="Stroke 11" d="M.5.5h0" transform="translate(14.08 14.079)" style="stroke-linecap:round;stroke-width:2px;stroke-linejoin:round;fill:none;stroke:#000;stroke-miterlimit:10"/>
                <path data-name="Stroke 11" d="M.5.5h0" transform="translate(9.562 9.561)" style="stroke-linecap:round;stroke-width:2px;stroke-linejoin:round;fill:none;stroke:#000;stroke-miterlimit:10"/>
            </g>
        </g>
    </g>
</svg>
