<svg xmlns="http://www.w3.org/2000/svg" width="30" height="30" viewBox="0 0 30 30">
    <defs>
        <style>
            .cls-4,.cls-5,.cls-7{fill:none}.cls-4{stroke:#000;stroke-width:1.2px}.cls-6,.cls-8{stroke:none}.cls-8{fill:#000}
        </style>
    </defs>
    <g id="Icon_gift" transform="translate(0 -7)">
        <g id="그룹_189" transform="translate(-40 -905.988)">
            <g id="사각형_252" class="cls-4">
                <path d="M0 0H21V5H0z" class="cls-6" transform="translate(45 922)"/>
                <path d="M0.6 0.6H20.400000000000002V4.3999999999999995H0.6z" class="cls-7" transform="translate(45 922)"/>
            </g>
            <g id="사각형_253" class="cls-4">
                <path d="M0 0H19V12H0z" class="cls-6" transform="translate(46 926)"/>
                <path d="M0.6 0.6H18.400000000000002V11.4H0.6z" class="cls-7" transform="translate(46 926)"/>
            </g>
            <path id="선_83" d="M0 0L0 15" class="cls-4" transform="translate(55.5 922.5)"/>
            <g id="그룹_189-2" transform="translate(23.771 -10)">
                <g id="패스_129" class="cls-5">
                    <path d="M2.643.048c2.612-.2 4.54 4.436 4.54 4.436A17.883 17.883 0 0 1 2.72 5.6 2.808 2.808 0 0 1 .039 2.786 2.621 2.621 0 0 1 2.643.048z" class="cls-6" transform="matrix(0.966, 0.259, -0.259, 0.966, 26.594, 926.857)"/>
                    <path d="M2.81 1.241c-.025 0-.05.001-.074.003l-.056.005-.075-.001c-.35 0-.681.14-.932.394-.286.29-.44.69-.434 1.127.012.889.685 1.621 1.499 1.633h.023c.617 0 1.742-.292 2.734-.605-.158-.276-.345-.578-.556-.877-.753-1.067-1.53-1.679-2.13-1.679m0-1.2c2.527 0 4.374 4.443 4.374 4.443S4.18 5.624 2.72 5.602C1.26 5.58.06 4.32.04 2.786.017 1.252 1.183.026 2.643.048c.056-.004.111-.007.166-.007z" class="cls-8" transform="matrix(0.966, 0.259, -0.259, 0.966, 26.594, 926.857)"/>
                </g>
                <g id="패스_130" class="cls-5">
                    <path d="M4.479-.057C1.867-.259-.061 4.38-.061 4.38A17.883 17.883 0 0 0 4.4 5.5a2.808 2.808 0 0 0 2.683-2.818A2.621 2.621 0 0 0 4.479-.057z" class="cls-6" transform="matrix(0.966, -0.259, 0.259, 0.966, 29.948, 928.801)"/>
                    <path d="M4.313 1.137c-.6 0-1.377.612-2.13 1.679-.211.299-.398.6-.556.877.991.313 2.116.605 2.733.605h.024c.814-.012 1.487-.745 1.5-1.633.005-.437-.149-.837-.435-1.127-.251-.255-.582-.395-.932-.395l-.075.001-.056-.004c-.024-.002-.049-.003-.073-.003m0-1.2c.055 0 .11.002.166.006 1.46-.02 2.625 1.205 2.604 2.739-.021 1.533-1.222 2.794-2.681 2.815C2.942 5.52-.061 4.38-.061 4.38S1.785-.063 4.313-.063z" class="cls-8" transform="matrix(0.966, -0.259, 0.259, 0.966, 29.948, 928.801)"/>
                </g>
            </g>
        </g>
    </g>
</svg>
