<svg xmlns="http://www.w3.org/2000/svg" width="18" height="18" viewBox="0 0 18 18">
    <g>
        <g fill="none">
            <path d="M9 0a9 9 0 1 1-9 9 9 9 0 0 1 9-9z" transform="translate(-251.713 -631.207) translate(251.713 631.207)"/>
            <path fill="#000" d="M9 1C4.589 1 1 4.589 1 9s3.589 8 8 8 8-3.589 8-8-3.589-8-8-8m0-1c4.97 0 9 4.03 9 9s-4.03 9-9 9-9-4.03-9-9 4.03-9 9-9z" transform="translate(-251.713 -631.207) translate(251.713 631.207)"/>
        </g>
        <path d="M7.982-1.789H7.2l.459-1.836H6.438l-.371 1.836h-.918l-.408-1.836H3.422l-.4 1.836H2.1l-.375-1.836H.443L.9-1.789H.115v1h1.034l.779 3.1h1.2L4.049-1.8l.918 4.109h1.2l.779-3.1h1.036zM2.3-.791h.5L2.541.382zM5.63.4L5.367-.791h.5z" transform="translate(-251.713 -631.207) translate(256.664 641.137)"/>
    </g>
</svg>
