<svg xmlns="http://www.w3.org/2000/svg" width="38" height="38" viewBox="0 0 38 38">
    <g>
        <g>
            <g stroke-miterlimit="10" stroke-width="1.2px">
                <path fill="#fff" stroke="#000" d="M1127.671-390.117l-2.436-2.767.729-3.615-3.5-1.173-1.173-3.5-3.616.729-2.767-2.437-2.767 2.437-3.615-.729-1.174 3.5-3.5 1.173.729 3.615-2.436 2.767 2.436 2.767-.728 3.615 3.5 1.173 1.174 3.5 3.615-.729 2.767 2.437 2.767-2.437 3.615.729 1.173-3.5 3.5-1.173-.729-3.615z" transform="translate(-136 -50) translate(136 50) translate(5.928 5.928) translate(-1102.152 402.877)"/>
                <path fill="none" stroke="#ff592e" d="M1157.99-346.677l-3.618 3.618-2.54-2.54" transform="translate(-136 -50) translate(136 50) translate(5.928 5.928) translate(-1142.151 357.628)"/>
            </g>
        </g>
    </g>
</svg>
