<svg xmlns="http://www.w3.org/2000/svg" width="26" height="26" viewBox="0 0 26 26">
    <g>
        <g>
            <g fill="#fff" stroke="#000" transform="translate(-129 -339) translate(131.6 341.6) translate(0)">
                <circle cx="10.4" cy="10.4" r="10.4" stroke="none"/>
                <circle cx="10.4" cy="10.4" r="9.9" fill="none"/>
            </g>
            <path d="M-.712-2.219H.3v1.056H-.712zm-1.711-4.067A2.491 2.491 0 0 1-1.8-8.051a2.206 2.206 0 0 1 1.7-.668 2.231 2.231 0 0 1 1.6.571 1.925 1.925 0 0 1 .6 1.46 1.561 1.561 0 0 1-.221.873 6.953 6.953 0 0 1-.891.985 2.85 2.85 0 0 0-.632.8 2.5 2.5 0 0 0-.145.967h-.9a3.292 3.292 0 0 1 .17-1.169A3.154 3.154 0 0 1 .238-5.25l.406-.4a1.681 1.681 0 0 0 .295-.361 1.29 1.29 0 0 0 .2-.686 1.327 1.327 0 0 0-.3-.863 1.2 1.2 0 0 0-.983-.366 1.2 1.2 0 0 0-1.173.63 2.442 2.442 0 0 0-.208 1.011z" transform="translate(-129 -339) translate(131.6 341.6) translate(10.561 15.341)"/>
        </g>
        <g/>
    </g>
</svg>
