<svg xmlns="http://www.w3.org/2000/svg" width="26" height="26" viewBox="0 0 26 26">
    <g>
        <g fill="#fff">
            <path d="M4.12 18.58v-2.955H.5V.5h18.906v15.125H7.826l-.137.109-3.57 2.847z" transform="translate(-0.07 0.149) translate(3.117 3.771)"/>
            <path fill="#000" d="M4.62 17.542l3.03-2.417h11.256V1H1v14.125h3.62v2.417m-1 2.077v-3.494H0V0h19.906v16.125H8L3.62 19.619z" transform="translate(-0.07 0.149) translate(3.117 3.771)"/>
        </g>
        <g>
            <path d="M0 0H1.393V1.393H0z" transform="translate(-0.07 0.149) translate(7.73 10.941) translate(0 0)"/>
            <path d="M0 0H1.393V1.393H0z" transform="translate(-0.07 0.149) translate(7.73 10.941) translate(4.643 0)"/>
            <path d="M0 0H1.393V1.393H0z" transform="translate(-0.07 0.149) translate(7.73 10.941) translate(9.286 0)"/>
        </g>
    </g>
</svg>
