<svg xmlns="http://www.w3.org/2000/svg" width="146.495" height="19.931" viewBox="0 0 146.495 19.931">
    <defs>
        <style>
            .cls-1{fill:#fff}
        </style>
    </defs>
    <g id="logo" transform="translate(-213.884 -169.136)">
        <g id="그룹_447" transform="translate(213.884 169.136)">
            <path id="패스_249" d="M295.628 185.563c-.219-.712-.52-.9-.985-.767a2.53 2.53 0 0 1-.52.109c-.3 0-.329-.218-.329-.52v-13.962c0-.821-.465-1.424-1.286-1.26l-2.218.411c-.821.164-1.26.466-1.26 1.26V184.8c0 2.82 1.452 4.271 4.189 4.271a5.01 5.01 0 0 0 2.437-.575c.466-.274.685-.493.438-1.26z" class="cls-1" transform="translate(-247.242 -169.136)"/>
            <circle id="타원_79" cx="2.847" cy="2.847" r="2.847" class="cls-1" transform="translate(50.078 14.209)"/>
            <path id="패스_250" d="M356.948 179.216c-4.435 0-7.638 3.067-7.638 7.2s3.2 7.2 7.638 7.2 7.639-3.066 7.639-7.2-3.203-7.2-7.639-7.2zm0 10.349a3.155 3.155 0 1 1 2.957-3.149 2.981 2.981 0 0 1-2.957 3.149z" class="cls-1" transform="translate(-273.937 -173.686)"/>
            <path id="패스_251" d="M405.8 189.757c-.218-.712-.52-.9-.985-.768a2.5 2.5 0 0 1-.52.11c-.3 0-.329-.219-.329-.52V185.2h-.029v-.018c0-3.641-2.354-5.968-5.749-5.968a6.107 6.107 0 0 0-4.49 1.835 5.321 5.321 0 0 0-4.243-1.835 5.157 5.157 0 0 0-4.381 2.273 3.362 3.362 0 0 0-3.477-2.273 4.883 4.883 0 0 0-2.054.466c-.6.3-.712.657-.548 1.369l.383 1.807c.165.684.494.794.74.767.274-.028.63-.246.876-.246.191 0 .3.137.3.383V192a1.132 1.132 0 0 0 1.232 1.259h2.274a1.132 1.132 0 0 0 1.229-1.259v-6.461a2.088 2.088 0 0 1 2.135-2.3 2.035 2.035 0 0 1 2.081 2.3V192a1.131 1.131 0 0 0 1.232 1.259h2.273a1.132 1.132 0 0 0 1.232-1.259v-6.461a2.1 2.1 0 0 1 2.135-2.3 2.034 2.034 0 0 1 2.08 2.3v3.444c0 2.82 1.451 4.272 4.188 4.272a5.019 5.019 0 0 0 2.437-.575c.466-.274.684-.493.438-1.26z" class="cls-1" transform="translate(-286.933 -173.686)"/>
            <path id="패스_252" d="M454.816 191.426l-.466-1.67c-.219-.712-.52-.9-.985-.768a2.487 2.487 0 0 1-.52.11c-.3 0-.329-.219-.329-.52V185.2h-.031v-.018c0-3.641-2.354-5.968-5.749-5.968a6.107 6.107 0 0 0-4.49 1.835 5.321 5.321 0 0 0-4.246-1.833 5.158 5.158 0 0 0-4.381 2.273 3.362 3.362 0 0 0-3.477-2.273 4.885 4.885 0 0 0-2.054.466c-.6.3-.712.657-.548 1.369l.383 1.807c.164.684.493.794.74.767.274-.028.629-.246.876-.246.192 0 .3.137.3.383V192a1.132 1.132 0 0 0 1.232 1.259h2.272a1.132 1.132 0 0 0 1.238-1.259v-6.461a2.088 2.088 0 0 1 2.135-2.3 2.035 2.035 0 0 1 2.081 2.3V192a1.132 1.132 0 0 0 1.232 1.259h2.271a1.132 1.132 0 0 0 1.234-1.259v-6.461a2.1 2.1 0 0 1 2.135-2.3 2.034 2.034 0 0 1 2.08 2.3v3.444c0 2.82 1.452 4.272 4.189 4.272a5.017 5.017 0 0 0 2.437-.575c.469-.268.688-.487.441-1.254z" class="cls-1" transform="translate(-308.423 -173.686)"/>
            <path id="패스_253" d="M270.086 189.757c-.218-.712-.52-.9-.985-.768a2.5 2.5 0 0 1-.52.11c-.3 0-.329-.219-.329-.52v-8.021a1.152 1.152 0 0 0-1.259-1.259h-1.341a1.132 1.132 0 0 0-1.232 1.259v.3a6.607 6.607 0 0 0-4.381-1.643 7.21 7.21 0 0 0 0 14.4 5.9 5.9 0 0 0 4.27-1.756 3.966 3.966 0 0 0 3.368 1.4 5.02 5.02 0 0 0 2.437-.575c.465-.274.684-.493.438-1.26zm-9.28-.191a3.157 3.157 0 0 1 0-6.3 2.909 2.909 0 0 1 2.929 3.149 2.955 2.955 0 0 1-2.93 3.15z" class="cls-1" transform="translate(-231.627 -173.686)"/>
            <path id="패스_254" d="M224.309 172.38h-7.755a4.883 4.883 0 0 0-2.054.466c-.6.3-.712.657-.548 1.369l.383 1.806c.165.685.494.795.74.768.274-.028.63-.246.876-.246.191 0 .3.137.3.383v1.16h.007v10.8a1.168 1.168 0 0 0 1.287 1.287h6.762c5.777 0 9.364-3.559 9.364-8.925.002-5.309-3.585-8.868-9.362-8.868zm-.191 13.88h-3.039v-9.966h3.039c2.738 0 4.681 1.835 4.681 4.983s-1.943 4.983-4.681 4.983z" class="cls-1" transform="translate(-213.884 -170.6)"/>
            <path id="패스_255" d="M332.89 186.917c-.191-.711-.465-.931-1.068-.766a1.735 1.735 0 0 1-.712.055c-.274-.055-.6-.329-1.451-1.506l-2.957-4.161 5.832-6.872c.629-.74.191-1.287-.657-1.287h-3.094c-.848 0-1.259.493-1.862 1.26l-4.736 5.612v-5.585a1.168 1.168 0 0 0-1.287-1.287h-3.235a4.885 4.885 0 0 0-2.054.466c-.6.3-.712.657-.548 1.369l.384 1.806c.164.685.493.795.74.768.274-.028.629-.246.876-.246.192 0 .3.137.3.383v11.961a1.168 1.168 0 0 0 1.287 1.287h2.252a1.168 1.168 0 0 0 1.287-1.287v-4.353l1.041-1.177 2.026 2.82a24.285 24.285 0 0 0 2.546 3.285 4.375 4.375 0 0 0 3.011 1.04 3.9 3.9 0 0 0 2-.438 1 1 0 0 0 .548-1.369z" class="cls-1" transform="translate(-258.7 -170.6)"/>
        </g>
    </g>
</svg>
