<svg xmlns="http://www.w3.org/2000/svg" width="94.257" height="12.99" viewBox="0 0 94.257 12.99">
    <defs>
        <style>
            .cls-1{fill:#fff}
        </style>
    </defs>
    <g id="LOGO" transform="translate(-214.212 -374.485)">
        <path id="패스_145" data-name="패스 145" class="cls-1" d="M293.658 385.19c-.143-.464-.339-.589-.642-.5a1.624 1.624 0 0 1-.339.071c-.2 0-.214-.143-.214-.339v-9.1c0-.535-.3-.928-.838-.821l-1.445.268c-.535.107-.821.3-.821.821v9.1a2.459 2.459 0 0 0 2.73 2.784 3.265 3.265 0 0 0 1.588-.375c.3-.178.446-.321.286-.821z" transform="translate(-48.276)"/>
        <circle id="타원_38" data-name="타원 38" class="cls-1" cx="1.856" cy="1.856" r="1.856" transform="translate(246.416 383.745)"/>
        <path id="패스_146" data-name="패스 146" class="cls-1" d="M354.616 384.564a4.7 4.7 0 1 0 4.978 4.693 4.694 4.694 0 0 0-4.978-4.693zm0 6.745a2.056 2.056 0 1 1 1.927-2.052 1.943 1.943 0 0 1-1.927 2.052z" transform="translate(-87.002 -6.475)"/>
        <path id="패스_147" data-name="패스 147" class="cls-1" d="M396.765 391.434c-.143-.464-.339-.589-.642-.5a1.648 1.648 0 0 1-.339.071c-.2 0-.215-.143-.215-.339v-2.2h-.019v-.011a3.608 3.608 0 0 0-3.747-3.89 3.98 3.98 0 0 0-2.926 1.2 3.468 3.468 0 0 0-2.765-1.2 3.361 3.361 0 0 0-2.855 1.481 2.192 2.192 0 0 0-2.266-1.481 3.187 3.187 0 0 0-1.338.3c-.392.2-.464.428-.357.892l.25 1.177c.107.446.321.518.482.5.178-.018.41-.161.571-.161.125 0 .2.089.2.25v5.377a.738.738 0 0 0 .8.82h1.481a.737.737 0 0 0 .8-.82v-4.211a1.361 1.361 0 0 1 1.392-1.5 1.326 1.326 0 0 1 1.356 1.5v4.211a.738.738 0 0 0 .8.82h1.481a.738.738 0 0 0 .8-.82v-4.211a1.37 1.37 0 0 1 1.392-1.5 1.326 1.326 0 0 1 1.356 1.5V390.937a2.459 2.459 0 0 0 2.73 2.784 3.269 3.269 0 0 0 1.588-.375c.3-.178.446-.321.286-.821z" transform="translate(-106.027 -6.475)"/>
        <path id="패스_148" data-name="패스 148" class="cls-1" d="m445.621 392.522-.3-1.088c-.143-.464-.339-.589-.642-.5a1.648 1.648 0 0 1-.339.071c-.2 0-.214-.143-.214-.339v-2.2h-.02v-.011a3.608 3.608 0 0 0-3.747-3.89 3.98 3.98 0 0 0-2.926 1.2 3.467 3.467 0 0 0-2.765-1.2 3.362 3.362 0 0 0-2.855 1.481 2.192 2.192 0 0 0-2.266-1.481 3.188 3.188 0 0 0-1.338.3c-.392.2-.464.428-.357.892l.25 1.177c.107.446.321.518.482.5.178-.018.41-.161.571-.161.125 0 .2.089.2.25v5.377a.737.737 0 0 0 .8.82h1.481a.738.738 0 0 0 .8-.82v-4.211a1.36 1.36 0 0 1 1.392-1.5 1.326 1.326 0 0 1 1.356 1.5v4.211a.737.737 0 0 0 .8.82h1.481a.737.737 0 0 0 .8-.82v-4.211a1.37 1.37 0 0 1 1.392-1.5 1.326 1.326 0 0 1 1.356 1.5V390.937a2.459 2.459 0 0 0 2.73 2.784 3.27 3.27 0 0 0 1.588-.375c.309-.182.451-.325.29-.824z" transform="translate(-137.219 -6.475)"/>
        <path id="패스_149" data-name="패스 149" class="cls-1" d="M264.531 391.434c-.143-.464-.339-.589-.642-.5a1.648 1.648 0 0 1-.339.071c-.2 0-.215-.143-.215-.339v-5.227a.75.75 0 0 0-.821-.82h-.874a.738.738 0 0 0-.8.82v.2a4.306 4.306 0 0 0-2.855-1.071 4.7 4.7 0 0 0 0 9.386 3.842 3.842 0 0 0 2.783-1.145 2.586 2.586 0 0 0 2.2.912 3.269 3.269 0 0 0 1.588-.375c.3-.178.446-.321.286-.821zm-6.048-.125a2.057 2.057 0 0 1 0-4.1 1.9 1.9 0 0 1 1.909 2.052 1.926 1.926 0 0 1-1.91 2.048z" transform="translate(-25.254 -6.475)"/>
        <path id="패스_150" data-name="패스 150" class="cls-1" d="M221.006 377.728h-5.054a3.187 3.187 0 0 0-1.338.3c-.392.2-.464.428-.357.892l.25 1.177c.107.446.321.518.482.5.178-.018.41-.161.571-.161.125 0 .2.089.2.25v.757h.005v7.04a.761.761 0 0 0 .839.838h4.407c3.765 0 6.1-2.319 6.1-5.817-.003-3.456-2.34-5.776-6.105-5.776zm-.125 9.046H218.9v-6.494h1.981a3.254 3.254 0 0 1 0 6.494z" transform="translate(0 -2.084)"/>
        <path id="패스_151" data-name="패스 151" class="cls-1" d="M326.985 387.2c-.125-.464-.3-.607-.7-.5a1.133 1.133 0 0 1-.464.036c-.178-.036-.392-.214-.945-.981l-1.927-2.712 3.8-4.478c.41-.482.124-.839-.428-.839h-2.017c-.553 0-.82.321-1.213.821l-3.086 3.658v-3.64a.761.761 0 0 0-.839-.839h-2.109a3.187 3.187 0 0 0-1.338.3c-.392.2-.464.428-.357.892l.25 1.177c.107.446.321.518.482.5.178-.018.41-.161.571-.161.125 0 .2.089.2.25v7.798a.761.761 0 0 0 .839.838h1.463a.761.761 0 0 0 .839-.838v-2.832l.678-.767 1.32 1.837a15.837 15.837 0 0 0 1.659 2.141 2.853 2.853 0 0 0 1.962.678 2.547 2.547 0 0 0 1.3-.285.653.653 0 0 0 .357-.892z" transform="translate(-64.956 -2.084)"/>
    </g>
</svg>
