<svg xmlns="http://www.w3.org/2000/svg" width="32.892" height="33.57" viewBox="0 0 32.892 33.57">
    <defs>
        <style>
            .cls-1{fill:#fff}.cls-5{fill:#020202}
        </style>
    </defs>
    <g id="store_01" transform="translate(0.392 0.569)">
        <path id="패스_95" d="M217.175 224.975h-31.891v-24.361l15.946-8.641 15.946 8.641z" class="cls-1" transform="translate(-185.284 -191.974)"/>
        <path id="패스_96" fill="none" stroke="#020202" stroke-miterlimit="10" d="M185.658 224.975v-24.361l15.946-8.641 15.946 8.641v24.361" transform="translate(-185.55 -191.974)"/>
        <path id="사각형_185" fill="#f4f4f4" d="M0 0H30.557V5.389H0z" transform="translate(0.728 27.613)"/>
        <path id="패스_97" fill="#ff592e" stroke="#020202" stroke-miterlimit="10" d="M232.519 266.8v-16.078h-11.463V266.8" transform="translate(-210.734 -233.802)"/>
        <path id="사각형_186" d="M0 0H5.292V5.282H0z" class="cls-1" transform="translate(13.408 19.526)"/>
        <g id="그룹_129" transform="translate(4.107 10.508)">
            <path id="사각형_187" d="M0 0H1.177V1.476H0z" class="cls-5"/>
            <path id="사각형_188" d="M0 0H1.177V1.476H0z" class="cls-5" transform="translate(11.25)"/>
            <path id="사각형_189" d="M0 0H1.177V1.476H0z" class="cls-5" transform="translate(22.501)"/>
        </g>
        <path id="사각형_190" d="M0 0H1.177V1.476H0z" class="cls-5" transform="translate(4.22 20.691)"/>
        <path id="사각형_191" d="M0 0H1.177V1.476H0z" class="cls-5" transform="translate(26.721 20.691)"/>
    </g>
</svg>
