<svg xmlns="http://www.w3.org/2000/svg" width="32.398" height="32.34" viewBox="0 0 32.398 32.34">
    <defs>
        <clipPath id="clip-path">
            <path id="패스_348" fill="#93e4f9" d="M5.289 0a5.335 5.335 0 0 1 5.289 5.381C6.662 5.427 4.8 5.4 0 5.381A5.335 5.335 0 0 1 5.289 0z"/>
        </clipPath>
        <style>
            .cls-3{fill:#fff}.cls-11{fill:none}.cls-7{fill:#020202}.cls-11{stroke:#000}
        </style>
    </defs>
    <g id="store_10" transform="translate(-165.939 -377.038)">
        <g id="그룹_599" transform="translate(166.337 377.378)">
            <g id="그룹_557" transform="translate(0 0.231)">
                <path id="패스_310" d="M210.225 420.005h-30.061v-23.451l15.031-8.318 15.031 8.318z" class="cls-3" transform="translate(-180.164 -388.236)"/>
                <path id="패스_311" fill="none" stroke="#020202" stroke-miterlimit="10" d="M180.539 420.005v-23.451l15.031-8.318 15.031 8.318v23.451" transform="translate(-180.437 -388.236)"/>
                <path id="사각형_480" fill="#f4f4f4" d="M0 0H29V5.188H0z" transform="translate(0.6 26.581)"/>
                <path id="패스_312" fill="#ff592e" stroke="#020202" stroke-miterlimit="10" d="M226.742 462.465v-15.48h-10.805v15.48" transform="translate(-206.207 -430.696)"/>
                <path id="사각형_481" d="M0 0H4.988V5.085H0z" class="cls-3" transform="translate(12.638 18.797)"/>
                <g id="그룹_556" transform="translate(3.871 10.115)">
                    <path id="사각형_482" d="M0 0H1.109V1.421H0z" class="cls-7"/>
                    <path id="사각형_483" d="M0 0H1.109V1.421H0z" class="cls-7" transform="translate(10.605)"/>
                    <path id="사각형_484" d="M0 0H1.109V1.421H0z" class="cls-7" transform="translate(21.209)"/>
                </g>
                <path id="사각형_485" d="M0 0H1.109V1.421H0z" class="cls-7" transform="translate(3.978 19.918)"/>
            </g>
            <g id="그룹_603" transform="translate(18.816 17.698)">
                <path id="선_232" fill="none" stroke="#000" stroke-miterlimit="10" d="M0 0L0 14.302" transform="translate(6.592)"/>
                <g id="패스_345" fill="#93e4f9" stroke="none">
                    <path d="M8.289 6.122c-1.337 0-2.675-.006-4.223-.014-1.039-.004-2.2-.01-3.546-.014C.774 2.967 3.4.5 6.592.5c3.193 0 5.82 2.469 6.072 5.598-1.546.016-2.915.024-4.375.024z" transform="translate(0 1.041)"/>
                    <path fill="#000" d="M6.592 1C3.849 1 1.56 2.986 1.089 5.596l2.98.012c1.548.008 2.885.014 4.22.014 1.279 0 2.488-.006 3.807-.018C11.628 2.99 9.338 1 6.592 1m0-1c3.64 0 6.592 2.951 6.592 6.592-4.88.057-7.202.018-13.184 0C0 2.952 2.951 0 6.592 0z" transform="translate(0 1.041)"/>
                </g>
                <g id="마스크_그룹_32" clip-path="url(#clip-path)" transform="translate(1.303 1.603)">
                    <g id="그룹_603-2" transform="translate(2.224 -0.191)">
                        <path id="패스_346" d="M-4977.969-319.941a8.238 8.238 0 0 0-2.323 5.6" class="cls-11" transform="translate(4980.292 319.941)"/>
                        <path id="패스_347" d="M-4980.292-319.941a8.238 8.238 0 0 1 2.323 5.6" class="cls-11" transform="translate(4984.098 319.941)"/>
                    </g>
                </g>
            </g>
        </g>
    </g>
</svg>
