<svg xmlns="http://www.w3.org/2000/svg" width="32" height="33.5" viewBox="0 0 32 33.5">
    <defs>
        <style>
            .cls-2{fill:#f4f4f4}.cls-3{fill:#fff}.cls-5{fill:#020202}.cls-6{fill:#ff592e}
        </style>
    </defs>
    <g id="store_02" transform="translate(26.016 -12.812)">
        <g id="그룹_595" transform="translate(-26.016 13.312)">
            <path id="사각형_194" d="M0 0H15.061V4.757H0z" class="cls-2" transform="translate(32 17.877) rotate(90)"/>
            <path id="사각형_195" d="M0 0H15.061V4.757H0z" class="cls-2" transform="translate(4.757 17.877) rotate(90)"/>
            <path id="사각형_196" d="M0 0H23.567V32.957H0z" class="cls-3" transform="translate(4.292)"/>
            <path id="패스_98" fill="none" stroke="#000" stroke-miterlimit="10" d="M391.6 224.1v-32.96h23.567v32.96" transform="translate(-387.382 -191.14)"/>
            <g id="그룹_132" transform="translate(8.44 17.877)">
                <path id="사각형_197" d="M0 0H0.96V1.277H0z" class="cls-5"/>
                <path id="사각형_198" d="M0 0H0.96V1.277H0z" class="cls-5" transform="translate(7.146)"/>
                <path id="사각형_199" d="M0 0H0.96V1.277H0z" class="cls-5" transform="translate(14.092)"/>
            </g>
            <g id="그룹_133" transform="translate(8.437 25.592)">
                <path id="사각형_200" d="M0 0H0.96V1.277H0z" class="cls-6" transform="translate(0)"/>
                <path id="사각형_201" d="M0 0H0.96V1.277H0z" class="cls-6" transform="translate(7.146)"/>
                <path id="사각형_202" d="M0 0H0.96V1.277H0z" class="cls-6" transform="translate(14.092)"/>
            </g>
            <g id="그룹_134" transform="translate(8.44 11.086)">
                <path id="사각형_203" d="M0 0H0.96V1.277H0z" class="cls-5"/>
                <path id="사각형_204" d="M0 0H0.96V1.277H0z" class="cls-5" transform="translate(7.146)"/>
                <path id="사각형_205" d="M0 0H0.96V1.277H0z" class="cls-5" transform="translate(14.092)"/>
            </g>
            <g id="그룹_135" transform="translate(8.44 4.295)">
                <path id="사각형_206" d="M0 0H0.96V1.277H0z" class="cls-5"/>
                <path id="사각형_207" d="M0 0H0.96V1.277H0z" class="cls-5" transform="translate(7.146)"/>
                <path id="사각형_208" d="M0 0H0.96V1.277H0z" class="cls-5" transform="translate(14.092)"/>
            </g>
            <path id="패스_99" fill="#ff592e" stroke="#020202" stroke-miterlimit="10" d="M425.8 280.965V272.8l-4.517-2.121-4.463 2.121v8.166" transform="translate(-405.328 -247.965)"/>
            <path id="사각형_209" d="M0 0H5.202V1.975H0z" class="cls-3" transform="translate(13.363 25.881)"/>
        </g>
    </g>
</svg>
