<svg xmlns="http://www.w3.org/2000/svg" width="70" height="70" viewBox="0 0 70 70">
    <defs>
        <style>
            .cls-8{fill:none}.cls-8,.cls-9{stroke-miterlimit:10}.cls-5{fill:#020202}.cls-8,.cls-9{stroke:#020202}.cls-9{fill:#ff592e}
        </style>
    </defs>
    <g id="store_03" transform="translate(0.43 -0.364)">
        <g id="그룹_596" transform="translate(-0.319 0.54)">
            <path id="패스_100" fill="#fff" d="M627.5 261.116h-36.9v-38.955h36.9z" transform="translate(-569.468 -200.023)"/>
            <path id="패스_101" fill="none" stroke="#000" stroke-miterlimit="10" d="M590.6 261.116v-38.955h36.9v38.955" transform="translate(-569.468 -200.023)"/>
            <g id="그룹_139" transform="translate(29.125 27.8)">
                <path id="사각형_213" d="M0 0H1.515V2.063H0z" class="cls-5" transform="translate(0 0)"/>
            </g>
            <g id="그룹_140" transform="translate(39.372 27.8)">
                <path id="사각형_214" d="M0 0H1.515V2.063H0z" class="cls-5" transform="translate(0 0)"/>
            </g>
            <g id="그룹_141" transform="translate(49.617 27.8)">
                <path id="사각형_215" d="M0 0H1.515V2.063H0z" class="cls-5" transform="translate(0 0)"/>
            </g>
            <g id="그룹_142" transform="translate(29.125 36.812)">
                <path id="사각형_216" d="M0 0H1.515V2.063H0z" class="cls-5"/>
            </g>
            <g id="그룹_143" transform="translate(39.372 36.812)">
                <path id="사각형_217" d="M0 0H1.515V2.063H0z" class="cls-5"/>
            </g>
            <g id="그룹_144" transform="translate(49.617 36.812)">
                <path id="사각형_218" d="M0 0H1.515V2.063H0z" class="cls-5" transform="translate(0)"/>
            </g>
            <path id="사각형_219" fill="#f4f4f4" d="M0 0H3.437V38.268H0z" transform="translate(22.546 22.641)"/>
            <path id="패스_102" fill="#fff" stroke="#020202" stroke-miterlimit="10" d="M616.386 286.4v-15.045h9.759V269h-41.784v2.355h9.759" transform="translate(-566.065 -225.248)"/>
            <path id="패스_103" d="M633.3 289.147V274.1h7.011" class="cls-8" transform="translate(-592.741 -227.997)"/>
            <path id="패스_104" d="M611.852 289.147V274.1h7.011" class="cls-8" transform="translate(-581.049 -227.997)"/>
            <path id="패스_105" d="M578.683 244.4v-53.26h-12.8v53.26" class="cls-9" transform="translate(-555.994 -183.317)"/>
            <g id="그룹_145" transform="translate(14.383 12.158)">
                <path id="패스_106" d="M576.024 200.534h3.755v3.809" class="cls-9" transform="translate(-575.904 -200.534)"/>
                <path id="선_62" d="M3.875 0L0 3.93" class="cls-9" transform="translate(0 0)"/>
            </g>
        </g>
    </g>
</svg>
