<svg xmlns="http://www.w3.org/2000/svg" width="70" height="70" viewBox="0 0 70 70">
    <defs>
        <style>
            .cls-3{fill:#fff}.cls-7{fill:#020202}
        </style>
    </defs>
    <g id="store_05" transform="translate(-158.337 -369.378)">
        <g id="그룹_599" transform="translate(-2.027 -0.28)">
            <g id="그룹_557" transform="translate(168.364 378.042)">
                <path id="패스_310" d="M230.937 440.874h-50.773v-38.856l25.387-13.782 25.387 13.782z" class="cls-3" transform="translate(-180.164 -388.236)"/>
                <path id="패스_311" fill="none" stroke="#020202" stroke-miterlimit="10" d="M180.539 440.874v-38.856l25.387-13.782 25.387 13.782v38.856" transform="translate(-180.367 -388.236)"/>
                <path id="사각형_480" fill="#f4f4f4" d="M0 0H49.7V8.595H0z" transform="translate(0.694 44.043)"/>
                <path id="패스_312" fill="#ff592e" stroke="#020202" stroke-miterlimit="10" d="M234.186 472.634v-25.649h-18.25v25.649" transform="translate(-199.503 -419.996)"/>
                <path id="사각형_481" d="M0 0H8.425V8.425H0z" class="cls-3" transform="translate(21.346 31.144)"/>
                <g id="그룹_556" transform="translate(6.539 16.76)">
                    <path id="사각형_482" d="M0 0H1.873V2.354H0z" class="cls-7"/>
                    <path id="사각형_483" d="M0 0H1.873V2.354H0z" class="cls-7" transform="translate(17.911)"/>
                    <path id="사각형_484" d="M0 0H1.873V2.354H0z" class="cls-7" transform="translate(35.822)"/>
                </g>
                <path id="사각형_485" d="M0 0H1.873V2.354H0z" class="cls-7" transform="translate(6.718 33.002)"/>
            </g>
            <g id="그룹_558" transform="translate(197.346 410.113)">
                <path id="패스_313" fill="#93e4f9" stroke="#000" stroke-miterlimit="10" d="M267.408 475.284h-24.157v-8.1l9.416-2.678 7.164-6.456h7.576" transform="translate(-243.251 -458.049)"/>
                <path id="사각형_486" d="M0 0H23.857V1.184H0z" class="cls-3" transform="translate(0.3 15.816)"/>
                <circle id="타원_95" cx="4.41" cy="4.41" r="4.41" fill="#fff" stroke="#000" stroke-miterlimit="10" transform="translate(6.168 11.393)"/>
                <circle id="타원_96" cx=".962" cy=".962" r=".962" transform="translate(9.616 14.841)"/>
                <path id="패스_314" d="M275.875 462.649l-5.016 4.763h11.474v-4.763z" class="cls-3" transform="translate(-258.176 -460.536)"/>
            </g>
        </g>
    </g>
</svg>
