<svg xmlns="http://www.w3.org/2000/svg" width="70" height="70" viewBox="0 0 70 70">
    <defs>
        <style>
            .cls-3{fill:#f4f4f4}.cls-4{fill:#fff}.cls-6{fill:#020202}.cls-7{fill:#ff592e}
        </style>
    </defs>
    <g id="store_07" transform="translate(-540.14 -367.834)">
        <g id="그룹_601" transform="translate(-1.659 -0.99)">
            <path id="사각형_489" d="M0 0H24.229V7.582H0z" class="cls-3" transform="translate(601.802 405.584) rotate(90)"/>
            <path id="사각형_490" d="M0 0H24.229V7.582H0z" class="cls-3" transform="translate(558.38 405.584) rotate(90)"/>
            <path id="사각형_491" d="M0 0H37.562V53.021H0z" class="cls-4" transform="translate(557.64 376.824)"/>
            <path id="패스_315" fill="none" stroke="#000" stroke-miterlimit="10" d="M577.988 440.424V387.4h37.562v53.021" transform="translate(-20.461 -10.579)"/>
            <g id="그룹_561" transform="translate(564.25 405.584)">
                <path id="사각형_492" d="M0 0H1.53V2.054H0z" class="cls-6"/>
                <path id="사각형_493" d="M0 0H1.53V2.054H0z" class="cls-6" transform="translate(11.39)"/>
                <path id="사각형_494" d="M0 0H1.53V2.054H0z" class="cls-6" transform="translate(22.461)"/>
            </g>
            <g id="그룹_562" transform="translate(564.246 417.995)">
                <path id="사각형_495" d="M0 0H1.53V2.054H0z" class="cls-7"/>
                <path id="사각형_496" d="M0 0H1.53V2.054H0z" class="cls-7" transform="translate(11.39)"/>
                <path id="사각형_497" d="M0 0H1.53V2.054H0z" class="cls-7" transform="translate(22.461)"/>
            </g>
            <g id="그룹_563" transform="translate(564.25 394.658)">
                <path id="사각형_498" d="M0 0H1.53V2.054H0z" class="cls-6" transform="translate(0 0)"/>
                <path id="사각형_499" d="M0 0H1.53V2.054H0z" class="cls-6" transform="translate(11.39 0)"/>
                <path id="사각형_500" d="M0 0H1.53V2.054H0z" class="cls-6" transform="translate(22.461 0)"/>
            </g>
            <g id="그룹_564" transform="translate(564.25 383.733)">
                <path id="사각형_501" d="M0 0H1.53V2.054H0z" class="cls-6"/>
                <path id="사각형_502" d="M0 0H1.53V2.054H0z" class="cls-6" transform="translate(11.39)"/>
                <path id="사각형_503" d="M0 0H1.53V2.054H0z" class="cls-6" transform="translate(22.461)"/>
            </g>
            <path id="패스_316" fill="#ff592e" stroke="#020202" stroke-miterlimit="10" d="M617.514 483.49v-13.137l-7.2-3.413-7.113 3.413v13.137" transform="translate(-34.091 -53.577)"/>
            <path id="사각형_504" d="M0 0H8.292V3.177H0z" class="cls-4" transform="translate(572.098 418.461)"/>
            <path id="패스_317" fill="#93e4f9" stroke="#000" stroke-miterlimit="10" d="M651.073 480.223v-19.384h-19.384v19.384" transform="translate(-49.492 -50.279)"/>
            <path id="패스_318" fill="#fff" stroke="#040000" stroke-miterlimit="10" d="M651.923 474.394h-3.077v-3.1h-3.62v3.1h-3.076v3.582h3.077v3.1h3.62v-3.1h3.077z" transform="translate(-55.147 -55.933)"/>
        </g>
    </g>
</svg>
